<?xml version="1.0" standalone="no"?>
<!DOCTYPE svg PUBLIC "-//W3C//DTD SVG 20010904//EN"
 "http://www.w3.org/TR/2001/REC-SVG-20010904/DTD/svg10.dtd">
<svg version="1.0" xmlns="http://www.w3.org/2000/svg"
 width="379.000000pt" height="294.000000pt" viewBox="0 0 379.000000 294.000000"
 preserveAspectRatio="xMidYMid meet">

<g transform="translate(0.000000,294.000000) scale(0.100000,-0.100000)"
fill="#000000" stroke="none">
<path d="M473 2924 c-196 -43 -339 -179 -402 -384 -58 -186 -54 -106 -58
-1368 l-4 -1162 296 0 295 0 0 1048 c0 640 4 1081 10 1135 17 147 58 201 154
201 97 1 166 -66 256 -249 27 -55 65 -140 85 -189 l35 -89 0 -928 0 -929 290
0 290 0 0 988 c0 1066 6 1238 43 1311 30 61 67 86 126 86 106 0 202 -118 325
-400 l49 -110 -6 -763 c-3 -420 -3 -842 0 -937 l6 -175 299 0 298 0 0 55 c0
30 1 55 3 56 1 0 43 5 92 9 186 17 360 69 462 138 34 23 64 42 67 42 8 0 118
111 130 132 71 114 99 166 112 206 23 75 44 193 44 249 0 28 4 55 10 58 7 4
10 338 10 971 l0 964 -755 0 -755 0 0 -150 c0 -82 -3 -150 -7 -150 -5 0 -28
31 -52 69 -91 144 -213 237 -350 266 -190 40 -404 -13 -503 -124 -52 -59 -102
-163 -118 -246 -7 -36 -17 -65 -24 -65 -6 0 -27 28 -46 62 -53 93 -140 208
-196 256 -127 112 -325 157 -511 116z m2797 -1186 c0 -696 -6 -862 -29 -892
-4 -6 -18 -37 -31 -70 -45 -113 -170 -208 -292 -222 l-58 -7 0 967 0 966 205
0 205 0 0 -742z"/>
</g>
</svg>
